<?xml version="1.0" standalone="no"?>
<!DOCTYPE svg PUBLIC "-//W3C//DTD SVG 20010904//EN"
 "http://www.w3.org/TR/2001/REC-SVG-20010904/DTD/svg10.dtd">
<svg version="1.0" xmlns="http://www.w3.org/2000/svg"
 width="700.000000pt" height="700.000000pt" viewBox="0 0 700.000000 700.000000"
 preserveAspectRatio="xMidYMid meet">
<metadata>
Created by potrace 1.14, written by Peter Selinger 2001-2017
</metadata>
<g transform="translate(0.000000,700.000000) scale(0.100000,-0.100000)"
fill="#000000" stroke="none">
<path d="M3298 6705 c-2 -2 -37 -6 -80 -9 -42 -4 -91 -9 -110 -11 -18 -3 -53
-8 -78 -11 -25 -3 -76 -12 -115 -19 -38 -8 -83 -17 -100 -20 -16 -2 -79 -18
-140 -35 -60 -16 -117 -32 -125 -34 -83 -22 -310 -115 -455 -186 -341 -167
-585 -340 -851 -605 -278 -277 -455 -523 -625 -865 -144 -291 -257 -657 -295
-955 -2 -22 -7 -51 -9 -65 -26 -160 -26 -640 -1 -767 3 -12 7 -48 11 -80 3
-32 8 -65 10 -73 2 -8 6 -33 10 -55 20 -137 108 -438 180 -615 271 -671 773
-1241 1405 -1596 114 -65 290 -149 391 -188 96 -36 104 -39 109 -41 3 0 41
-13 85 -27 89 -30 252 -74 304 -83 19 -3 37 -8 40 -10 4 -2 27 -6 51 -10 76
-11 94 -13 140 -20 25 -4 54 -9 65 -11 128 -24 633 -24 761 0 10 2 46 7 79 10
33 4 105 16 160 27 55 12 108 22 117 24 53 11 221 60 310 91 220 76 424 172
621 292 97 59 145 91 266 179 33 24 86 66 146 116 86 72 319 308 397 403 246
299 441 647 564 1009 38 112 90 299 100 360 3 22 8 43 10 46 3 5 15 74 29 174
4 22 8 51 10 64 26 159 26 578 0 781 -13 97 -17 125 -20 130 -1 3 -6 25 -9 50
-21 157 -108 457 -188 650 -109 261 -286 564 -447 763 -199 247 -431 466 -681
643 -423 301 -963 507 -1465 560 -27 3 -66 8 -85 10 -39 6 -487 14 -492 9z
m417 -589 c39 -4 81 -8 95 -10 57 -7 136 -19 155 -22 11 -2 34 -7 50 -10 254
-45 597 -179 842 -330 93 -58 241 -161 270 -190 9 -9 -362 -12 -1627 -12 -902
0 -1640 2 -1640 3 0 1 33 27 73 56 231 172 489 308 742 391 90 29 313 85 370
93 28 3 59 8 70 10 39 8 93 15 181 21 49 3 90 7 91 8 5 4 266 -2 328 -8z
m-2257 -2618 c0 -1239 -3 -1639 -12 -1628 -230 298 -390 610 -477 933 -23 85
-56 246 -64 310 -4 27 -8 58 -10 69 -26 133 -23 487 5 673 5 33 12 78 15 100
43 281 193 663 374 950 38 61 163 235 168 235 1 0 2 -739 1 -1642z m4226 1447
c134 -205 225 -389 299 -605 131 -382 168 -741 121 -1175 -16 -153 -77 -395
-145 -580 -42 -111 -162 -363 -199 -415 -11 -15 -20 -33 -20 -39 0 -6 -4 -11
-10 -11 -5 0 -10 -5 -10 -10 0 -6 -16 -34 -37 -63 -51 -74 -135 -187 -139
-187 -1 0 -2 738 -2 1641 l0 1640 45 -58 c25 -32 69 -94 97 -138z m-1632
-1082 c-301 -601 -549 -1093 -552 -1093 -5 0 -1090 2171 -1090 2181 0 4 492 7
1094 6 l1094 0 -546 -1094z m-853 -1809 c1 -8 -160 -11 -576 -10 l-578 1 -1
1165 -2 1165 579 -1155 c318 -635 578 -1160 578 -1166z m1758 1149 l-2 -1158
-582 -1 -582 -1 580 1158 c318 638 581 1159 583 1159 2 0 3 -521 3 -1157z
m183 -1748 c0 -6 -176 -132 -256 -182 -100 -64 -308 -169 -429 -216 -175 -69
-421 -135 -575 -153 -30 -3 -58 -8 -61 -10 -10 -6 -230 -18 -329 -18 -489 0
-984 146 -1395 412 -93 59 -193 131 -222 159 -9 8 389 11 1627 11 902 0 1640
-2 1640 -3z"/>
</g>
</svg>
